<svg width="33" height="32" viewBox="0 0 33 32" fill="none" xmlns="http://www.w3.org/2000/svg">
<mask id="mask0_33_2929" style="mask-type:alpha" maskUnits="userSpaceOnUse" x="0" y="0" width="33" height="32">
<rect x="0.666992" width="32" height="32" fill="#D9D9D9"/>
</mask>
<g mask="url(#mask0_33_2929)">
<path d="M16.6669 29.3333L4.66693 17.4666L11.3336 9.33329H22.0003L28.6669 17.4666L16.6669 29.3333ZM6.76693 9.33329L3.93359 6.49996L5.83359 4.63329L8.66693 7.46663L6.76693 9.33329ZM15.3336 6.66663V2.66663H18.0003V6.66663H15.3336ZM26.5003 9.33329L24.6003 7.43329L27.4336 4.59996L29.3336 6.49996L26.5003 9.33329ZM16.6669 25.6L23.6669 18.6666H9.66693L16.6669 25.6ZM12.6003 12L9.30026 16H24.0336L20.7336 12H12.6003Z" fill="#049797"/>
</g>
</svg>
