<svg width="58" height="49" viewBox="0 0 58 49" fill="none" xmlns="http://www.w3.org/2000/svg">
<path d="M19.5146 0.187012C23.5521 0.187066 22.4759 1.56166 21.7578 4.67334C21.0399 7.78426 20.412 8.26204 19.7393 8.26221C13.0101 9.60762 9.6449 18.4304 9.19629 22.3931C21.7574 17.907 28.471 28.8981 28.2627 34.73C28.0382 41.0104 23.1032 48.188 15.0283 48.188C6.95341 48.1879 4.68205e-05 42.3559 0 29.5708C0 14.3182 9.64264 0.186908 19.5146 0.187012ZM48.6748 0.187012C52.7118 0.187149 51.635 1.56176 50.917 4.67334C50.199 7.78461 49.5713 8.26221 48.8984 8.26221C42.1694 9.60779 38.805 18.4304 38.3564 22.3931C50.9175 17.9071 57.6302 28.8981 57.4219 34.73C57.1973 41.0103 52.2632 48.1879 44.1885 48.188C36.1135 48.188 29.1602 42.3559 29.1602 29.5708C29.1602 14.3182 38.8028 0.186908 48.6748 0.187012Z" fill="#E9D5FF"/>
</svg>
