<svg width="39" height="32" viewBox="0 0 39 32" fill="none" xmlns="http://www.w3.org/2000/svg">
<path d="M13.0098 0C15.7009 0.000118181 14.9836 0.916896 14.5049 2.99121C14.0263 5.06483 13.6076 5.38366 13.1592 5.38379C8.67323 6.28071 6.42996 12.1619 6.13086 14.8037C14.5047 11.8131 18.9797 19.1405 18.8408 23.0283C18.6912 27.2152 15.4016 32 10.0186 32C4.63545 31.9999 2.05412e-05 28.1121 0 19.5889C0 9.42067 6.42861 -6.94265e-05 13.0098 0ZM32.4482 0C35.1396 2.83928e-05 34.423 0.916146 33.9443 2.99023C33.4656 5.06465 33.0463 5.38379 32.5977 5.38379C28.112 6.28104 25.8694 12.1621 25.5703 14.8037C33.944 11.8133 38.4191 19.1405 38.2803 23.0283C38.1306 27.2151 34.841 31.9999 29.458 32C24.0749 32 19.4395 28.1121 19.4395 19.5889C19.4395 9.42083 25.8672 0.000228157 32.4482 0Z" fill="#3C037A"/>
</svg>
