<svg width="33" height="32" viewBox="0 0 33 32" fill="none" xmlns="http://www.w3.org/2000/svg">
<mask id="mask0_33_2945" style="mask-type:alpha" maskUnits="userSpaceOnUse" x="0" y="0" width="33" height="32">
<rect x="0.333496" width="32" height="32" fill="#D9D9D9"/>
</mask>
<g mask="url(#mask0_33_2945)">
<path d="M5.66667 24C4.93333 24 4.30556 23.7389 3.78333 23.2167C3.26111 22.6944 3 22.0667 3 21.3333V10.6667C3 9.93333 3.26111 9.30556 3.78333 8.78333C4.30556 8.26111 4.93333 8 5.66667 8H27C27.7333 8 28.3611 8.26111 28.8833 8.78333C29.4056 9.30556 29.6667 9.93333 29.6667 10.6667V21.3333C29.6667 22.0667 29.4056 22.6944 28.8833 23.2167C28.3611 23.7389 27.7333 24 27 24H5.66667ZM5.66667 21.3333H27V10.6667H23V16H20.3333V10.6667H17.6667V16H15V10.6667H12.3333V16H9.66667V10.6667H5.66667V21.3333Z" fill="#049797"/>
</g>
</svg>
